# xmcd
#
# Track frame offsets: 
#        150
#        20849
#        35477
#        55508
#        70551
#        86547
#        102968
#        121768
#        134255
#        150832
#        172936
#        191432
#        207423
#        225320
#        242526
#
# Disc length: 3431 seconds
#
# Revision: 14
# Processed by: cddbd v1.5.2PL0 Copyright (c) Steve Scherf et al.
# Submitted via: ExactAudioCopyFreeDBPlugin 1.0
#
DISCID=ae0d650f
DTITLE=Rihanna - Good Girl Gone Bad - Reloaded
DYEAR=2008
DGENRE=R&B
TTITLE0=Rihanna Feat. Jay-Z - Umbrella
TTITLE1=Push Up On Me
TTITLE2=Don't Stop The Music
TTITLE3=Breakin' Dishes
TTITLE4=Shut Up And Drive
TTITLE5=Rihanna Feat. Ne-Yo - Hate That I Love You
TTITLE6=Say It
TTITLE7=Sell Me Candy
TTITLE8=Lemme Get That
TTITLE9=Rehab
TTITLE10=Question Existing
TTITLE11=Good Girl Gone Bad
TTITLE12=Disturbia
TTITLE13=Take A Bow
TTITLE14=Maroon 5 Feat. Rihanna - If I Never See Your Face Again
EXTD=
EXTT0=
EXTT1=
EXTT2=
EXTT3=
EXTT4=
EXTT5=
EXTT6=
EXTT7=
EXTT8=
EXTT9=
EXTT10=
EXTT11=
EXTT12=
EXTT13=
EXTT14=
PLAYORDER=
